<svg xmlns="http://www.w3.org/2000/svg" viewBox="0 0 512 512" width="64" height="64">
  <defs>
    <radialGradient id="bg" cx="50%" cy="35%" r="65%">
      <stop offset="0%" stop-color="#1a3a8a"/>
      <stop offset="100%" stop-color="#0a0a1a"/>
    </radialGradient>
  </defs>
  <rect width="512" height="512" rx="80" fill="url(#bg)"/>
  <ellipse cx="256" cy="490" rx="220" ry="50" fill="#e8f4ff"/>
  <g transform="translate(256 320)">
    <ellipse cx="0" cy="170" rx="115" ry="14" fill="rgba(0,0,0,0.3)"/>
    <ellipse cx="0" cy="50" rx="125" ry="160" fill="#0a0a0a"/>
    <ellipse cx="0" cy="70" rx="85" ry="115" fill="#ffffff"/>
    <ellipse cx="0" cy="-100" rx="105" ry="95" fill="#0a0a0a"/>
    <ellipse cx="0" cy="-85" rx="68" ry="62" fill="#ffffff"/>
    <circle cx="-28" cy="-110" r="13" fill="#0a0a0a"/>
    <circle cx="28" cy="-110" r="13" fill="#0a0a0a"/>
    <circle cx="-25" cy="-114" r="4" fill="#fff"/>
    <circle cx="32" cy="-114" r="4" fill="#fff"/>
    <path d="M -22 -75 L 22 -75 L 0 -45 Z" fill="#ffae00"/>
    <ellipse cx="-110" cy="50" rx="22" ry="68" fill="#0a0a0a" transform="rotate(-15 -110 50)"/>
    <ellipse cx="110" cy="50" rx="22" ry="68" fill="#0a0a0a" transform="rotate(15 110 50)"/>
    <ellipse cx="-38" cy="190" rx="36" ry="16" fill="#ffae00"/>
    <ellipse cx="38" cy="190" rx="36" ry="16" fill="#ffae00"/>
  </g>
</svg>
